# xmcd CD database file
#
# Track frame offsets:
#	150
#	20607
#	44949
#	59187
#	72353
#	88349
#	96306
#	107325
#	118624
#	130001
#	144950
#	161154
#	171087
#	186807
#
# Disc length: 2678 seconds
#
# Revision: 0
# Processed by: cddbd v1.5.2PL0 Copyright (c) Steve Scherf et al.
# Submitted via: CDex 1.50beta10
#
DISCID=d00a740e
DTITLE=The Last Mile Ramblers - While They Last
DYEAR=1974
DGENRE=Country
TTITLE0=Ghost Riders In The Sky
TTITLE1=Phantom 309
TTITLE2=Out Of Control
TTITLE3=Nine-Pound Hammer
TTITLE4=Come A Little Closer
TTITLE5=Fresh Fish (Instrumental)
TTITLE6=Tennessee
TTITLE7=Roly Poly
TTITLE8=Cotton-Eyed Joe (Instrumental)
TTITLE9=Future On Ice
TTITLE10=The Golden Inn Song
TTITLE11=Diesel Smoke (Dangerous Curves)
TTITLE12=Good-Hearted Woman
TTITLE13=The Hurrier I Go (The Behinder I Get)
EXTD=YEAR: 1974
EXTT0=
EXTT1=
EXTT2=
EXTT3=
EXTT4=
EXTT5=
EXTT6=
EXTT7=
EXTT8=
EXTT9=
EXTT10=
EXTT11=
EXTT12=
EXTT13=
PLAYORDER=
